<svg width="18" height="18" viewBox="0 0 18 18" fill="none" xmlns="http://www.w3.org/2000/svg">
<g clip-path="url(#clip0_953_4102)">
<rect x="0.821533" y="15.9286" width="17" height="1.57143" rx="0.5" stroke="#6B6E74"/>
<rect x="2.53564" y="13.3572" width="13.5714" height="2.42857" rx="0.5" stroke="#6B6E74"/>
<rect x="4.25" y="13.2143" width="7.57143" height="1.57143" rx="0.5" transform="rotate(-90 4.25 13.2143)" stroke="#6B6E74"/>
<rect x="12.8215" y="13.2143" width="7.57143" height="1.57143" rx="0.5" transform="rotate(-90 12.8215 13.2143)" stroke="#6B6E74"/>
<rect x="8.53564" y="13.2143" width="7.57143" height="1.57143" rx="0.5" transform="rotate(-90 8.53564 13.2143)" stroke="#6B6E74"/>
<path d="M9.09643 0.764989C9.23566 0.684604 9.4072 0.684604 9.54643 0.764989L15.8355 4.396C16.2342 4.6262 16.0709 5.23571 15.6105 5.23571H3.03233C2.57193 5.23571 2.40861 4.6262 2.80733 4.396L9.09643 0.764989Z" stroke="#6B6E74" stroke-width="1.1"/>
</g>
<defs>
<clipPath id="clip0_953_4102">
<rect width="18" height="18" fill="white"/>
</clipPath>
</defs>
</svg>